0
SECTION
2
HEADER
9
$INSUNITS
70
4
9
$ACADVER
1
AC1014
9
$HANDSEED
5
FFFF
0
ENDSEC
0
SECTION
2
TABLES
0
TABLE
2
VPORT
5
8
100
AcDbSymbolTable
0
ENDTAB
0
TABLE
2
LTYPE
5
5
100
AcDbSymbolTable
0
LTYPE
5
14
100
AcDbSymbolTableRecord
100
AcDbLinetypeTableRecord
2
BYBLOCK
70
0
0
LTYPE
5
15
100
AcDbSymbolTableRecord
100
AcDbLinetypeTableRecord
2
BYLAYER
70
0
0
ENDTAB
0
TABLE
2
LAYER
5
2
100
AcDbSymbolTable
70
2
0
LAYER
5
50
100
AcDbSymbolTableRecord
100
AcDbLayerTableRecord
2
0
70
0
6
CONTINUOUS
0
ENDTAB
0
TABLE
2
STYLE
5
3
100
AcDbSymbolTable
70
1
0
STYLE
5
11
100
AcDbSymbolTableRecord
100
AcDbTextStyleTableRecord
2
STANDARD
70
0
0
ENDTAB
0
TABLE
2
VIEW
5
6
100
AcDbSymbolTable
70
0
0
ENDTAB
0
TABLE
2
UCS
5
7
100
AcDbSymbolTable
70
0
0
ENDTAB
0
TABLE
2
APPID
5
9
100
AcDbSymbolTable
70
2
0
APPID
5
12
100
AcDbSymbolTableRecord
100
AcDbRegAppTableRecord
2
ACAD
70
0
0
ENDTAB
0
TABLE
2
DIMSTYLE
5
A
100
AcDbSymbolTable
70
1
0
ENDTAB
0
TABLE
2
BLOCK_RECORD
5
1
100
AcDbSymbolTable
70
1
0
BLOCK_RECORD
5
1F
100
AcDbSymbolTableRecord
100
AcDbBlockTableRecord
2
*MODEL_SPACE
0
BLOCK_RECORD
5
1B
100
AcDbSymbolTableRecord
100
AcDbBlockTableRecord
2
*PAPER_SPACE
0
ENDTAB
0
ENDSEC
0
SECTION
2
BLOCKS
0
BLOCK
5
20
100
AcDbEntity
100
AcDbBlockBegin
2
*MODEL_SPACE
0
ENDBLK
5
21
100
AcDbEntity
100
AcDbBlockEnd
0
BLOCK
5
1C
100
AcDbEntity
100
AcDbBlockBegin
2
*PAPER_SPACE
0
ENDBLK
5
1D
100
AcDbEntity
100
AcDbBlockEnd
0
ENDSEC
0
SECTION
2
ENTITIES
0
LWPOLYLINE
5
100
100
AcDbEntity
8
0
100
AcDbPolyline
90
4
70
1
43
0.0
10
300
20
0
10
0
20
0
10
0
20
-190
10
300
20
-190
0
LWPOLYLINE
5
101
100
AcDbEntity
8
0
100
AcDbPolyline
90
4
70
1
43
0.0
10
48.842400233656079
20
-166.04119742521556
10
38.842400233656079
20
-166.04119742521556
10
38.842400233656079
20
-180.04119742521553
10
48.842400233656079
20
-180.04119742521553
0
LWPOLYLINE
5
102
100
AcDbEntity
8
0
100
AcDbPolyline
90
4
70
1
43
0.0
10
54.056685947941794
20
-180.04119742521553
10
64.056685947941801
20
-180.04119742521553
10
64.056685947941801
20
-166.04119742521556
10
54.056685947941794
20
-166.04119742521556
0
LWPOLYLINE
5
103
100
AcDbEntity
8
0
100
AcDbPolyline
90
4
70
1
43
0.0
10
69.27097166222751
20
-180.04119742521553
10
79.27097166222751
20
-180.04119742521553
10
79.27097166222751
20
-166.04119742521556
10
69.27097166222751
20
-166.04119742521556
0
LWPOLYLINE
5
104
100
AcDbEntity
8
0
100
AcDbPolyline
90
4
70
1
43
0.0
10
84.485257376513232
20
-180.04119742521553
10
94.485257376513232
20
-180.04119742521553
10
94.485257376513232
20
-166.04119742521556
10
84.485257376513232
20
-166.04119742521556
0
LWPOLYLINE
5
105
100
AcDbEntity
8
0
100
AcDbPolyline
90
4
70
1
43
0.0
10
99.699543090798954
20
-180.04119742521553
10
109.69954309079895
20
-180.04119742521553
10
109.69954309079895
20
-166.04119742521556
10
99.699543090798954
20
-166.04119742521556
0
LWPOLYLINE
5
106
100
AcDbEntity
8
0
100
AcDbPolyline
90
4
70
1
43
0.0
10
114.91382880508466
20
-180.04119742521553
10
124.91382880508466
20
-180.04119742521553
10
124.91382880508466
20
-166.04119742521556
10
114.91382880508466
20
-166.04119742521556
0
LWPOLYLINE
5
107
100
AcDbEntity
8
0
100
AcDbPolyline
90
4
70
1
43
0.0
10
130.12811451937037
20
-180.04119742521553
10
140.12811451937037
20
-180.04119742521553
10
140.12811451937037
20
-166.04119742521556
10
130.12811451937037
20
-166.04119742521556
0
LWPOLYLINE
5
108
100
AcDbEntity
8
0
100
AcDbPolyline
90
4
70
1
43
0.0
10
145.34240023365609
20
-180.04119742521553
10
155.34240023365609
20
-180.04119742521553
10
155.34240023365609
20
-166.04119742521556
10
145.34240023365609
20
-166.04119742521556
0
LWPOLYLINE
5
109
100
AcDbEntity
8
0
100
AcDbPolyline
90
4
70
1
43
0.0
10
49.460225795157911
20
-129.96464904748427
10
38.460225795157911
20
-129.96464904748427
10
38.460225795157911
20
-148.9646490474843
10
49.460225795157911
20
-148.9646490474843
0
LWPOLYLINE
5
110
100
AcDbEntity
8
0
100
AcDbPolyline
90
4
70
1
43
0.0
10
64.626892461824582
20
-129.96464904748427
10
53.626892461824582
20
-129.96464904748427
10
53.626892461824582
20
-148.9646490474843
10
64.626892461824582
20
-148.9646490474843
0
LWPOLYLINE
5
111
100
AcDbEntity
8
0
100
AcDbPolyline
90
4
70
1
43
0.0
10
79.793559128491239
20
-129.96464904748427
10
68.793559128491239
20
-129.96464904748427
10
68.793559128491239
20
-148.9646490474843
10
79.793559128491239
20
-148.9646490474843
0
LWPOLYLINE
5
112
100
AcDbEntity
8
0
100
AcDbPolyline
90
4
70
1
43
0.0
10
94.960225795157925
20
-129.96464904748427
10
83.960225795157896
20
-129.96464904748427
10
83.960225795157896
20
-148.9646490474843
10
94.960225795157925
20
-148.9646490474843
0
CIRCLE
5
113
100
AcDbEntity
8
0
100
AcDbCircle
10
151.51757308109751
20
-138.91133032935619
30
0
40
9.5499999999999936
210
0
220
0
230
1
0
CIRCLE
5
114
100
AcDbEntity
8
0
100
AcDbCircle
10
173.76757308109751
20
-138.91133032935619
30
0
40
9.5499999999999936
210
0
220
0
230
1
0
CIRCLE
5
115
100
AcDbEntity
8
0
100
AcDbCircle
10
196.01757308109751
20
-138.91133032935619
30
0
40
9.5499999999999936
210
0
220
0
230
1
0
LWPOLYLINE
5
116
100
AcDbEntity
8
0
100
AcDbPolyline
90
4
70
1
43
0.0
10
163.14656558113572
20
-96.605313189276316
10
163.14656558113572
20
-84.648654929173063
10
150.14656558113572
20
-84.648654929173063
10
150.14656558113572
20
-96.82623528605086
42
2.7070767044716861
0
LWPOLYLINE
5
117
100
AcDbEntity
8
0
100
AcDbPolyline
90
4
70
1
43
0.0
10
197.14656558113572
20
-96.605313189276302
42
-2.7070767044716861
10
184.14656558113569
20
-96.82623528605086
10
184.14656558113569
20
-84.648654929173091
10
197.14656558113572
20
-84.648654929173091
0
LWPOLYLINE
5
118
100
AcDbEntity
8
0
100
AcDbPolyline
90
20
70
1
43
0.0
10
49.151639540467954
20
-88.138375639805346
10
39.151639540467954
20
-88.138375639805346
10
39.151639540467954
20
-98.138375639805346
10
41.891366977274451
20
-98.138375639805346
10
41.891366977274451
20
-102.13837563980535
10
39.151639540467954
20
-102.13837563980535
10
39.151639540467954
20
-112.13837563980535
10
49.151639540467954
20
-112.13837563980535
10
49.151639540467954
20
-110.29141982843964
10
54.151639540467954
20
-110.29141982843964
10
54.151639540467954
20
-112.13837563980535
10
64.151639540467954
20
-112.13837563980535
10
64.151639540467954
20
-102.13837563980535
10
61.891366977274451
20
-102.13837563980535
10
61.891366977274451
20
-98.138375639805346
10
64.151639540467954
20
-98.138375639805346
10
64.151639540467954
20
-88.138375639805346
10
54.151639540467954
20
-88.138375639805346
10
54.151639540467954
20
-90.291419828439643
10
49.151639540467954
20
-90.291419828439643
0
LWPOLYLINE
5
119
100
AcDbEntity
8
0
100
AcDbPolyline
90
6
70
1
43
0.0
10
116.60306013014588
20
-20.200277350534847
10
43.945794623101442
20
-20.200277350534847
10
43.945794623101442
20
-32.683226666657525
42
0.25092564320142152
10
45.506105994782722
20
-35.596576632791198
42
0.30244546743299289
10
115.04274875846455
20
-35.596576632791191
42
0.25092564320141653
10
116.60306013014588
20
-32.683226666657518
0
LWPOLYLINE
5
120
100
AcDbEntity
8
0
100
AcDbPolyline
90
6
70
1
43
0.0
10
43.603060130145863
20
-62.200277350534833
10
43.603060130145863
20
-74.683226666657504
10
116.26032563719029
20
-74.683226666657504
10
116.26032563719029
20
-62.200277350534833
42
0.25092564320142025
10
114.70001426550901
20
-59.28692738440116
42
0.30244546743299294
10
45.163371501827179
20
-59.28692738440116
42
0.25092564320141619
0
LINE
5
121
100
AcDbEntity
8
0
100
AcDbLine
10
138.2547978915066
20
-26.816521720765216
30
0
11
169.98141058753356
21
-26.816521720765216
31
0
0
LINE
5
122
100
AcDbEntity
8
0
100
AcDbLine
10
166.60880701890105
20
-66.816521720765223
30
0
11
138.2547978915066
21
-66.816521720765223
31
0
0
LINE
5
123
100
AcDbEntity
8
0
100
AcDbLine
10
138.2547978915066
20
-66.816521720765223
30
0
11
138.2547978915066
21
-66.811534371421516
31
0
0
ARC
5
124
100
AcDbEntity
8
0
100
AcDbCircle
10
187.34210637440444
20
-48.422471020273228
30
0
40
27.716616015256761
210
0
220
0
230
1
100
AcDbArc
50
128.78238569130679
51
221.5786149707958
0
ARC
5
125
100
AcDbEntity
8
0
100
AcDbCircle
10
138.57061551049054
20
-46.81402804609337
30
0
40
20
210
0
220
-0
230
1
100
AcDbArc
50
89.095211562372043
51
269.09521156237139
0
LWPOLYLINE
5
126
100
AcDbEntity
8
0
100
AcDbPolyline
90
6
70
1
43
0.0
10
246.34437694743698
20
-57.939720202961681
10
250.97523114466122
20
-65.932749837423444
10
246.36849152662759
20
-73.939702030672294
10
237.13089771136976
20
-73.95362458945938
10
232.50004351414555
20
-65.960594954997617
10
237.10678313217915
20
-57.953642761748767
0
LWPOLYLINE
5
127
100
AcDbEntity
8
0
100
AcDbPolyline
90
6
70
1
43
0.0
10
232.50004351414555
20
-65.960594954997617
10
237.10678313217915
20
-57.953642761748767
10
246.34437694743698
20
-57.939720202961681
10
250.97523114466122
20
-65.932749837423444
10
246.36849152662759
20
-73.939702030672294
10
237.13089771136976
20
-73.95362458945938
0
LWPOLYLINE
5
128
100
AcDbEntity
8
0
100
AcDbPolyline
90
6
70
1
43
0.0
10
232.50004351414555
20
-65.960594954997617
10
237.10678313217915
20
-57.953642761748767
10
246.34437694743698
20
-57.939720202961681
10
250.97523114466122
20
-65.932749837423444
10
246.36849152662759
20
-73.939702030672294
10
237.13089771136976
20
-73.95362458945938
0
LWPOLYLINE
5
129
100
AcDbEntity
8
0
100
AcDbPolyline
90
6
70
1
43
0.0
10
255.75004351414552
20
-65.960594954997617
10
260.35678313217915
20
-57.953642761748767
10
269.59437694743701
20
-57.939720202961681
10
274.22523114466122
20
-65.932749837423444
10
269.61849152662757
20
-73.939702030672294
10
260.38089771136976
20
-73.95362458945938
0
LWPOLYLINE
5
130
100
AcDbEntity
8
0
100
AcDbPolyline
90
6
70
1
43
0.0
10
279.00004351414555
20
-65.960594954997617
10
283.60678313217915
20
-57.953642761748767
10
292.84437694743696
20
-57.939720202961681
10
297.47523114466117
20
-65.932749837423444
10
292.86849152662757
20
-73.939702030672294
10
283.63089771136976
20
-73.95362458945938
0
LWPOLYLINE
5
131
100
AcDbEntity
8
0
100
AcDbPolyline
90
8
70
1
43
0.0
10
26.074038718699395
20
-27.413510961967695
10
1.826791618808663
20
-27.413510961967695
10
1.826791618808663
20
-38.515830222992371
10
11.145302933885112
20
-38.515830222992371
42
-0.82139994131933913
10
11.021364615738442
20
-55.191570549742778
10
1.826791618808663
20
-55.191570549742778
10
1.826791618808663
20
-67.413510961967688
10
26.074038718699395
20
-67.413510961967688
42
0.72666439290045171
0
ENDSEC
0
SECTION
2
OBJECTS
0
DICTIONARY
5
C
100
AcDbDictionary
3
ACAD_GROUP
350
D
3
ACAD_MLINESTYLE
350
17
0
DICTIONARY
5
D
100
AcDbDictionary
0
DICTIONARY
5
1A
330
C
100
AcDbDictionary
0
DICTIONARY
5
17
100
AcDbDictionary
0
ENDSEC
0
EOF
