0
SECTION
2
HEADER
9
$INSUNITS
70
4
9
$ACADVER
1
AC1014
9
$HANDSEED
5
FFFF
0
ENDSEC
0
SECTION
2
TABLES
0
TABLE
2
VPORT
5
8
100
AcDbSymbolTable
0
ENDTAB
0
TABLE
2
LTYPE
5
5
100
AcDbSymbolTable
0
LTYPE
5
14
100
AcDbSymbolTableRecord
100
AcDbLinetypeTableRecord
2
BYBLOCK
70
0
0
LTYPE
5
15
100
AcDbSymbolTableRecord
100
AcDbLinetypeTableRecord
2
BYLAYER
70
0
0
ENDTAB
0
TABLE
2
LAYER
5
2
100
AcDbSymbolTable
70
2
0
LAYER
5
50
100
AcDbSymbolTableRecord
100
AcDbLayerTableRecord
2
0
70
0
6
CONTINUOUS
0
ENDTAB
0
TABLE
2
STYLE
5
3
100
AcDbSymbolTable
70
1
0
STYLE
5
11
100
AcDbSymbolTableRecord
100
AcDbTextStyleTableRecord
2
STANDARD
70
0
0
ENDTAB
0
TABLE
2
VIEW
5
6
100
AcDbSymbolTable
70
0
0
ENDTAB
0
TABLE
2
UCS
5
7
100
AcDbSymbolTable
70
0
0
ENDTAB
0
TABLE
2
APPID
5
9
100
AcDbSymbolTable
70
2
0
APPID
5
12
100
AcDbSymbolTableRecord
100
AcDbRegAppTableRecord
2
ACAD
70
0
0
ENDTAB
0
TABLE
2
DIMSTYLE
5
A
100
AcDbSymbolTable
70
1
0
ENDTAB
0
TABLE
2
BLOCK_RECORD
5
1
100
AcDbSymbolTable
70
1
0
BLOCK_RECORD
5
1F
100
AcDbSymbolTableRecord
100
AcDbBlockTableRecord
2
*MODEL_SPACE
0
BLOCK_RECORD
5
1B
100
AcDbSymbolTableRecord
100
AcDbBlockTableRecord
2
*PAPER_SPACE
0
ENDTAB
0
ENDSEC
0
SECTION
2
BLOCKS
0
BLOCK
5
20
100
AcDbEntity
100
AcDbBlockBegin
2
*MODEL_SPACE
0
ENDBLK
5
21
100
AcDbEntity
100
AcDbBlockEnd
0
BLOCK
5
1C
100
AcDbEntity
100
AcDbBlockBegin
2
*PAPER_SPACE
0
ENDBLK
5
1D
100
AcDbEntity
100
AcDbBlockEnd
0
ENDSEC
0
SECTION
2
ENTITIES
0
LWPOLYLINE
5
100
100
AcDbEntity
8
0
100
AcDbPolyline
90
4
70
1
43
0.0
10
245
20
0
10
0
20
0
10
0
20
135
10
245
20
135
0
LWPOLYLINE
5
101
100
AcDbEntity
8
0
100
AcDbPolyline
90
8
70
1
43
0.0
10
34.999999999999993
20
36.5
10
6.0000000000000009
20
36.5
42
0.41421356237309503
10
5
20
35.5
10
5
20
6.5
42
0.41421356237309503
10
6.0000000000000009
20
5.5
10
34.999999999999993
20
5.5
42
0.41421356237309503
10
36
20
6.4999999999999991
10
36
20
35.5
42
0.41421356237309503
0
CIRCLE
5
102
100
AcDbEntity
8
0
100
AcDbCircle
10
19.873493999846676
20
63.767707432791596
30
0
40
5.4999999999999964
210
0
220
0
230
1
0
CIRCLE
5
103
100
AcDbEntity
8
0
100
AcDbCircle
10
32.409802710818511
20
87.975289114853879
30
0
40
5.4999999999999964
210
0
220
0
230
1
0
CIRCLE
5
104
100
AcDbEntity
8
0
100
AcDbCircle
10
43.41087000038867
20
87.975289114853865
30
0
40
5.4999999999999964
210
0
220
0
230
1
0
CIRCLE
5
105
100
AcDbEntity
8
0
100
AcDbCircle
10
9.2366588520306223
20
91.450233540951416
30
0
40
5.4999999999999947
210
0
220
0
230
1
0
CIRCLE
5
106
100
AcDbEntity
8
0
100
AcDbCircle
10
9.2366588520306223
20
102.53946141030934
30
0
40
5.4999999999999947
210
0
220
0
230
1
0
CIRCLE
5
107
100
AcDbEntity
8
0
100
AcDbCircle
10
37.403713797574852
20
63.767707432791596
30
0
40
5.4999999999999964
210
0
220
0
230
1
0
CIRCLE
5
108
100
AcDbEntity
8
0
100
AcDbCircle
10
48.447216177795028
20
63.767707432791639
30
0
40
5.4999999999999964
210
0
220
0
230
1
0
CIRCLE
5
109
100
AcDbEntity
8
0
100
AcDbCircle
10
69.575570580988071
20
87.975289114853936
30
0
40
5.4999999999999964
210
0
220
0
230
1
0
CIRCLE
5
110
100
AcDbEntity
8
0
100
AcDbCircle
10
80.576637870558173
20
87.975289114853865
30
0
40
5.4999999999999964
210
0
220
0
230
1
0
CIRCLE
5
111
100
AcDbEntity
8
0
100
AcDbCircle
10
111.43925329237624
20
96
30
0
40
5.4999999999999964
210
0
220
0
230
1
0
CIRCLE
5
112
100
AcDbEntity
8
0
100
AcDbCircle
10
122.50000000000003
20
95.999999999999972
30
0
40
5.4999999999999964
210
0
220
0
230
1
0
CIRCLE
5
113
100
AcDbEntity
8
0
100
AcDbCircle
10
97.916780373810823
20
67.499999999999986
30
0
40
5.4999999999999964
210
0
220
0
230
1
0
CIRCLE
5
114
100
AcDbEntity
8
0
100
AcDbCircle
10
108.96201315070734
20
67.500000000000028
30
0
40
5.4999999999999964
210
0
220
0
230
1
0
CIRCLE
5
115
100
AcDbEntity
8
0
100
AcDbCircle
10
126.37790453300481
20
67.5
30
0
40
5.4999999999999964
210
0
220
0
230
1
0
CIRCLE
5
116
100
AcDbEntity
8
0
100
AcDbCircle
10
137.38176939687929
20
67.500000000000043
30
0
40
5.4999999999999964
210
0
220
0
230
1
0
CIRCLE
5
117
100
AcDbEntity
8
0
100
AcDbCircle
10
154.41709984058693
20
96.000000000000057
30
0
40
5.4999999999999964
210
0
220
0
230
1
0
CIRCLE
5
118
100
AcDbEntity
8
0
100
AcDbCircle
10
143.35321117523949
20
95.999999999999972
30
0
40
5.4999999999999964
210
0
220
0
230
1
0
CIRCLE
5
119
100
AcDbEntity
8
0
100
AcDbCircle
10
210.00000000000003
20
79.965326573409186
30
0
40
5.4999999999999964
210
0
220
0
230
1
0
CIRCLE
5
120
100
AcDbEntity
8
0
100
AcDbCircle
10
221.01573067820334
20
79.965326573409243
30
0
40
5.4999999999999964
210
0
220
0
230
1
0
CIRCLE
5
121
100
AcDbEntity
8
0
100
AcDbCircle
10
8.8299916196264796
20
63.767707432791624
30
0
40
5.4999999999999964
210
0
220
0
230
1
0
CIRCLE
5
122
100
AcDbEntity
8
0
100
AcDbCircle
10
210.00000000000003
20
49.928546717533791
30
0
40
5.4999999999999964
210
0
220
0
230
1
0
CIRCLE
5
123
100
AcDbEntity
8
0
100
AcDbCircle
10
221.09935430061927
20
49.928546717533834
30
0
40
5.4999999999999964
210
0
220
0
230
1
0
CIRCLE
5
124
100
AcDbEntity
8
0
100
AcDbCircle
10
220.94489011752498
20
22.886022483292546
30
0
40
5.4999999999999964
210
0
220
0
230
1
0
CIRCLE
5
125
100
AcDbEntity
8
0
100
AcDbCircle
10
231.99243921624617
20
22.88602248329255
30
0
40
5.4999999999999964
210
0
220
0
230
1
0
LWPOLYLINE
5
126
100
AcDbEntity
8
0
100
AcDbPolyline
90
8
70
1
43
0.0
10
91.668025614661985
20
122.18193246740623
10
83.668025614661985
20
122.18193246740623
42
0.41421356237309503
10
82.668025614661985
20
121.18193246740623
10
82.668025614661985
20
113.18193246740621
42
0.41421356237309503
10
83.668025614661985
20
112.18193246740623
10
91.668025614661985
20
112.18193246740623
42
0.41421356237309503
10
92.668025614661985
20
113.18193246740621
10
92.668025614662
20
121.18193246740624
42
0.41421356237308982
0
LWPOLYLINE
5
127
100
AcDbEntity
8
0
100
AcDbPolyline
90
8
70
1
43
0.0
10
68.5
20
36.5
42
-0.41421356237309503
10
69.5
20
35.5
10
69.5
20
6.5
42
-0.41421356237309503
10
68.5
20
5.5
10
39.5
20
5.4999999999999947
42
-0.41421356237309503
10
38.5
20
6.4999999999999991
10
38.5
20
35.5
42
-0.41421356237309503
10
39.5
20
36.5
0
LWPOLYLINE
5
128
100
AcDbEntity
8
0
100
AcDbPolyline
90
8
70
1
43
0.0
10
102
20
36.5
42
-0.41421356237309503
10
102.99999999999999
20
35.5
10
102.99999999999999
20
6.5
42
-0.41421356237309503
10
102
20
5.5
10
73
20
5.5000000000000036
42
-0.41421356237309503
10
72
20
6.4999999999999991
10
72
20
35.5
42
-0.41421356237309503
10
73
20
36.5
0
LWPOLYLINE
5
129
100
AcDbEntity
8
0
100
AcDbPolyline
90
8
70
1
43
0.0
10
135.5
20
36.500000000000014
42
-0.41421356237309503
10
136.5
20
35.5
10
136.5
20
6.5
42
-0.41421356237309503
10
135.5
20
5.5
10
106.5
20
5.4999999999999858
42
-0.41421356237308982
10
105.5
20
6.4999999999999991
10
105.50000000000003
20
35.5
42
-0.41421356237309503
10
106.50000000000003
20
36.5
0
LWPOLYLINE
5
130
100
AcDbEntity
8
0
100
AcDbPolyline
90
8
70
1
43
0.0
10
169.00000000000003
20
36.499999999999979
42
-0.41421356237309503
10
170
20
35.5
10
170.00000000000003
20
6.5
42
-0.41421356237309503
10
169.00000000000003
20
5.5
10
140
20
5.4999999999999858
42
-0.41421356237308982
10
139
20
6.4999999999999991
10
139.00000000000003
20
35.5
42
-0.41421356237309503
10
140.00000000000003
20
36.5
0
LINE
5
131
100
AcDbEntity
8
0
100
AcDbLine
10
0
20
87.975289114853865
30
0
11
245
21
87.975289114853865
31
0
0
LINE
5
132
100
AcDbEntity
8
0
100
AcDbLine
10
0
20
63.767707432791596
30
0
11
245
21
63.767707432791596
31
0
0
LINE
5
133
100
AcDbEntity
8
0
100
AcDbLine
10
0
20
67.5
30
0
11
245
21
67.5
31
0
0
LINE
5
134
100
AcDbEntity
8
0
100
AcDbLine
10
0
20
96
30
0
11
245
21
96
31
0
0
LINE
5
135
100
AcDbEntity
8
0
100
AcDbLine
10
210.00000000000003
20
135
30
0
11
210.00000000000003
21
0
31
0
0
LINE
5
136
100
AcDbEntity
8
0
100
AcDbLine
10
210.00000000000003
20
79.965326573409186
30
0
11
245
21
79.965326573409186
31
0
0
LINE
5
137
100
AcDbEntity
8
0
100
AcDbLine
10
210.00000000000003
20
49.928546717533791
30
0
11
245
21
49.928546717533791
31
0
0
LINE
5
138
100
AcDbEntity
8
0
100
AcDbLine
10
220.94489011752498
20
22.886022483292546
30
0
11
245
21
22.886022483292546
31
0
0
LWPOLYLINE
5
139
100
AcDbEntity
8
0
100
AcDbPolyline
90
8
70
1
43
0.0
10
104.41802561466199
20
122.18193246740624
42
-0.41421356237308982
10
105.418025614662
20
121.18193246740624
10
105.41802561466199
20
113.18193246740621
42
-0.41421356237309503
10
104.41802561466199
20
112.18193246740623
10
96.418025614661985
20
112.18193246740623
42
-0.41421356237309503
10
95.418025614661985
20
113.18193246740621
10
95.418025614661985
20
121.18193246740623
42
-0.41421356237309503
10
96.418025614661985
20
122.18193246740623
0
LWPOLYLINE
5
140
100
AcDbEntity
8
0
100
AcDbPolyline
90
8
70
1
43
0.0
10
117.16802561466199
20
122.18193246740624
42
-0.41421356237308982
10
118.16802561466201
20
121.18193246740624
10
118.16802561466199
20
113.18193246740621
42
-0.41421356237309503
10
117.16802561466199
20
112.18193246740623
10
109.16802561466199
20
112.18193246740623
42
-0.41421356237309503
10
108.16802561466199
20
113.18193246740621
10
108.16802561466199
20
121.18193246740623
42
-0.41421356237309503
10
109.16802561466199
20
122.18193246740623
0
LWPOLYLINE
5
141
100
AcDbEntity
8
0
100
AcDbPolyline
90
8
70
1
43
0.0
10
129.91802561466199
20
122.18193246740624
42
-0.41421356237308982
10
130.91802561466199
20
121.18193246740624
10
130.91802561466199
20
113.18193246740621
42
-0.41421356237309503
10
129.91802561466199
20
112.18193246740623
10
121.91802561466197
20
112.18193246740624
42
-0.41421356237309503
10
120.91802561466199
20
113.18193246740621
10
120.91802561466197
20
121.18193246740623
42
-0.41421356237309503
10
121.91802561466197
20
122.18193246740623
0
LWPOLYLINE
5
142
100
AcDbEntity
8
0
100
AcDbPolyline
90
8
70
1
43
0.0
10
142.66802561466199
20
122.18193246740624
42
-0.41421356237308982
10
143.66802561466201
20
121.18193246740624
10
143.66802561466199
20
113.18193246740621
42
-0.41421356237309503
10
142.66802561466199
20
112.18193246740623
10
134.66802561466199
20
112.1819324674062
42
-0.41421356237309503
10
133.66802561466199
20
113.18193246740621
10
133.66802561466199
20
121.18193246740623
42
-0.41421356237309503
10
134.66802561466199
20
122.18193246740623
0
LWPOLYLINE
5
143
100
AcDbEntity
8
0
100
AcDbPolyline
90
8
70
1
43
0.0
10
155.41802561466199
20
122.18193246740624
42
-0.41421356237308982
10
156.41802561466199
20
121.18193246740624
10
156.41802561466199
20
113.18193246740621
42
-0.41421356237309503
10
155.41802561466199
20
112.18193246740623
10
147.41802561466199
20
112.18193246740624
42
-0.41421356237309503
10
146.41802561466199
20
113.18193246740621
10
146.41802561466199
20
121.18193246740623
42
-0.41421356237309503
10
147.41802561466199
20
122.18193246740623
0
LWPOLYLINE
5
144
100
AcDbEntity
8
0
100
AcDbPolyline
90
8
70
1
43
0.0
10
168.16802561466199
20
122.18193246740624
42
-0.41421356237308982
10
169.16802561466199
20
121.18193246740624
10
169.16802561466199
20
113.18193246740621
42
-0.41421356237309503
10
168.16802561466199
20
112.18193246740623
10
160.16802561466199
20
112.1819324674062
42
-0.41421356237309503
10
159.16802561466199
20
113.18193246740621
10
159.16802561466201
20
121.18193246740623
42
-0.41421356237309503
10
160.16802561466199
20
122.18193246740623
0
LWPOLYLINE
5
145
100
AcDbEntity
8
0
100
AcDbPolyline
90
8
70
1
43
0.0
10
180.91802561466196
20
122.18193246740624
42
-0.41421356237308982
10
181.91802561466201
20
121.18193246740624
10
181.91802561466199
20
113.18193246740621
42
-0.41421356237309503
10
180.91802561466199
20
112.18193246740623
10
172.91802561466199
20
112.1819324674062
42
-0.41421356237309503
10
171.91802561466199
20
113.18193246740621
10
171.91802561466199
20
121.18193246740623
42
-0.41421356237309503
10
172.91802561466199
20
122.18193246740623
0
LWPOLYLINE
5
146
100
AcDbEntity
8
0
100
AcDbPolyline
90
8
70
1
43
0.0
10
193.66802561466201
20
122.18193246740624
42
-0.41421356237308982
10
194.66802561466204
20
121.18193246740624
10
194.66802561466204
20
113.18193246740621
42
-0.41421356237309503
10
193.66802561466201
20
112.18193246740623
10
185.66802561466199
20
112.18193246740624
42
-0.41421356237309503
10
184.66802561466199
20
113.18193246740621
10
184.66802561466196
20
121.18193246740623
42
-0.41421356237309503
10
185.66802561466199
20
122.18193246740623
0
LINE
5
147
100
AcDbEntity
8
0
100
AcDbLine
10
9.2366588520306223
20
91.450233540951416
30
0
11
9.2366588520306223
21
135
31
0
0
LWPOLYLINE
5
148
100
AcDbEntity
8
0
100
AcDbPolyline
90
4
70
1
43
0.0
10
192.5100464357069
20
100.78443836826744
10
162.5100464357069
20
100.78443836826744
10
162.5100464357069
20
60.784438368267445
10
192.5100464357069
20
60.784438368267445
0
CIRCLE
5
149
100
AcDbEntity
8
0
100
AcDbCircle
10
177.5100464357069
20
60.784438368267445
30
0
40
5
210
0
220
0
230
1
0
ENDSEC
0
SECTION
2
OBJECTS
0
DICTIONARY
5
C
100
AcDbDictionary
3
ACAD_GROUP
350
D
3
ACAD_MLINESTYLE
350
17
0
DICTIONARY
5
D
100
AcDbDictionary
0
DICTIONARY
5
1A
330
C
100
AcDbDictionary
0
DICTIONARY
5
17
100
AcDbDictionary
0
ENDSEC
0
EOF
